<?xml version="1.0" standalone="no"?>
<!DOCTYPE svg PUBLIC "-//W3C//DTD SVG 20010904//EN"
 "http://www.w3.org/TR/2001/REC-SVG-20010904/DTD/svg10.dtd">
<svg version="1.0" xmlns="http://www.w3.org/2000/svg"
 width="700.000000pt" height="700.000000pt" viewBox="0 0 700.000000 700.000000"
 preserveAspectRatio="xMidYMid meet">
<metadata>
Created by potrace 1.11, written by Peter Selinger 2001-2013
</metadata>
<g transform="translate(0.000000,700.000000) scale(0.100000,-0.100000)"
fill="#000000" stroke="none">
<path d="M0 3500 l0 -3500 70 0 70 0 1 1648 c1 906 5 1634 9 1617 4 -16 8 -60
9 -96 0 -37 6 -91 12 -120 6 -30 17 -88 24 -129 24 -132 34 -180 44 -213 6
-17 20 -66 31 -107 12 -41 25 -84 30 -95 5 -11 12 -31 15 -45 6 -25 26 -79 51
-137 8 -17 14 -36 14 -41 0 -6 6 -23 14 -39 8 -15 29 -59 46 -98 18 -38 36
-77 41 -85 5 -8 12 -22 15 -30 3 -8 8 -19 10 -25 2 -5 20 -37 39 -70 19 -33
40 -69 45 -80 6 -11 18 -32 28 -47 9 -14 30 -48 46 -75 16 -26 48 -73 70 -105
23 -31 48 -66 56 -78 21 -32 51 -71 76 -100 12 -14 54 -63 94 -110 89 -105
270 -283 376 -370 43 -36 85 -71 93 -78 8 -7 26 -21 40 -30 14 -9 58 -40 96
-68 39 -28 92 -64 118 -80 27 -16 61 -37 75 -46 15 -10 36 -22 47 -28 11 -5
47 -26 80 -45 33 -19 67 -38 75 -41 8 -3 22 -10 30 -15 8 -5 22 -12 30 -15 8
-3 22 -10 30 -15 8 -5 22 -12 30 -15 22 -8 82 -35 104 -46 11 -6 31 -14 45
-18 14 -5 51 -18 81 -30 70 -27 149 -53 225 -75 33 -9 74 -22 90 -27 87 -29
312 -70 555 -100 135 -17 505 -17 640 0 203 25 307 43 450 76 172 40 379 105
453 142 16 8 33 14 39 14 6 0 36 12 67 26 31 14 76 35 101 46 25 11 52 23 60
28 8 5 42 23 75 39 33 17 81 43 107 58 99 59 193 117 203 125 5 5 42 31 80 58
39 27 75 53 80 57 6 5 33 26 60 48 227 180 419 379 599 620 53 72 100 135 104
140 11 13 88 141 130 213 44 78 144 283 176 362 15 36 31 73 36 82 6 10 10 23
10 30 0 7 6 25 14 40 8 15 17 42 21 60 4 18 11 38 15 43 4 6 12 30 18 55 6 25
18 72 27 105 9 33 21 80 26 105 6 25 15 59 20 76 5 17 14 62 19 100 5 38 14
89 19 114 6 25 11 81 12 125 0 44 4 91 8 105 17 56 22 -454 19 -1838 l-3
-1452 68 0 67 0 0 3500 0 3500 -67 0 -68 0 3 -1402 c3 -1339 -2 -1863 -19
-1808 -4 14 -8 61 -9 105 0 44 -6 103 -11 130 -5 28 -14 79 -19 114 -5 35 -14
77 -19 95 -5 17 -15 54 -21 81 -27 124 -32 141 -40 160 -5 11 -18 54 -30 95
-12 41 -28 89 -36 107 -8 17 -14 37 -14 45 0 8 -4 18 -8 23 -4 6 -18 37 -31
70 -12 33 -27 67 -32 75 -5 8 -12 22 -15 30 -38 96 -246 470 -266 478 -4 2 -8
8 -8 13 0 10 -35 59 -144 199 -194 250 -492 530 -742 698 -69 45 -126 82 -131
82 -2 0 -19 11 -36 24 -18 14 -43 30 -57 36 -14 6 -52 26 -85 45 -33 19 -67
37 -75 41 -8 3 -22 10 -30 15 -8 5 -22 12 -30 15 -8 3 -42 19 -75 34 -33 15
-80 35 -105 45 -25 9 -58 23 -75 30 -16 8 -61 23 -100 35 -38 12 -79 26 -90
30 -11 5 -36 12 -55 16 -19 3 -41 10 -50 15 -8 4 -37 13 -65 19 -27 6 -77 17
-110 25 -58 13 -111 23 -240 46 -33 6 -118 15 -190 20 -71 4 -176 11 -233 15
-98 7 -282 -3 -482 -26 -163 -19 -220 -29 -350 -60 -25 -6 -67 -16 -95 -22
-27 -5 -54 -13 -60 -18 -5 -4 -26 -11 -45 -15 -41 -8 -201 -61 -245 -80 -16
-7 -50 -21 -75 -30 -86 -34 -226 -100 -315 -150 -33 -19 -69 -38 -81 -44 -27
-12 -127 -73 -134 -81 -3 -3 -23 -17 -45 -30 -63 -38 -262 -188 -350 -264
-181 -157 -389 -385 -533 -585 -59 -82 -124 -181 -138 -211 -4 -8 -11 -17 -14
-20 -8 -5 -14 -17 -78 -141 -24 -46 -47 -91 -52 -99 -4 -8 -22 -46 -40 -85
-17 -38 -38 -83 -46 -98 -8 -16 -14 -33 -14 -39 0 -5 -6 -24 -14 -41 -37 -88
-59 -151 -95 -277 -12 -41 -26 -90 -32 -107 -10 -32 -18 -72 -39 -188 -6 -33
-15 -80 -21 -105 -6 -25 -14 -96 -19 -158 -4 -62 -10 -116 -14 -119 -3 -4 -6
714 -6 1595 l0 1602 -70 0 -70 0 0 -3500z m3830 3310 c30 -5 97 -14 148 -20
51 -5 97 -12 102 -15 5 -3 42 -12 82 -19 40 -8 100 -21 133 -29 33 -8 80 -20
105 -27 50 -12 127 -38 150 -50 9 -4 31 -11 50 -15 19 -4 40 -10 45 -14 6 -4
37 -17 70 -30 112 -44 334 -150 415 -199 19 -12 44 -26 55 -32 11 -6 34 -19
50 -30 17 -11 40 -25 53 -31 12 -7 22 -16 22 -21 0 -4 5 -8 11 -8 8 0 53 -30
114 -77 6 -5 22 -16 36 -25 14 -9 32 -23 40 -30 8 -7 48 -40 89 -73 91 -72
314 -291 390 -381 30 -37 60 -71 66 -78 16 -17 157 -206 179 -241 29 -44 35
-54 90 -146 28 -46 55 -93 62 -104 7 -11 15 -27 18 -35 4 -8 10 -22 15 -30 13
-23 79 -159 101 -210 11 -25 24 -53 30 -62 5 -10 9 -23 9 -29 0 -6 6 -25 14
-42 26 -59 101 -291 117 -365 27 -122 41 -192 50 -247 5 -33 17 -100 25 -150
23 -128 23 -682 1 -810 -9 -49 -21 -121 -27 -160 -22 -134 -31 -178 -40 -196
-6 -10 -10 -26 -10 -37 0 -29 -85 -300 -116 -369 -8 -17 -14 -36 -14 -41 0 -6
-7 -23 -15 -39 -8 -15 -26 -55 -41 -88 -37 -85 -102 -215 -125 -250 -10 -16
-23 -39 -28 -51 -5 -12 -27 -48 -48 -80 -21 -32 -42 -67 -48 -76 -35 -61 -174
-246 -249 -333 -77 -90 -281 -294 -371 -371 -65 -56 -211 -169 -265 -204 -12
-8 -33 -23 -45 -33 -13 -9 -28 -17 -33 -17 -6 0 -12 -4 -14 -8 -5 -14 -189
-119 -312 -179 -147 -72 -177 -85 -286 -128 -25 -9 -55 -21 -68 -26 -13 -5
-46 -9 -74 -9 -49 0 -51 1 -34 19 11 12 25 17 38 13 16 -4 19 -1 16 14 -4 23
-38 32 -38 11 0 -36 -223 -36 -237 -1 -3 8 -18 14 -34 14 -19 0 -29 5 -29 15
0 8 -4 15 -10 15 -13 0 -13 -17 -1 -24 5 -4 2 -20 -7 -39 -15 -29 -17 -30 -20
-9 -6 38 -22 24 -22 -19 0 -47 18 -69 56 -69 22 0 25 3 16 12 -7 7 -12 34 -12
60 0 42 3 48 20 48 12 0 34 -14 50 -30 28 -28 34 -30 110 -30 72 0 81 -2 78
-18 -2 -9 -14 -19 -28 -20 -14 -2 -31 -9 -38 -14 -13 -11 -104 -34 -189 -48
-28 -4 -58 -12 -65 -16 -25 -16 -251 -45 -495 -64 -235 -18 -643 16 -880 75
-218 53 -285 73 -292 84 -4 5 -19 13 -34 16 -23 6 -28 12 -23 29 9 33 20 450
12 479 -15 60 -26 23 -26 -85 0 -62 -3 -177 -7 -255 l-6 -143 -33 0 c-18 0
-45 6 -61 14 -15 8 -46 22 -68 31 -96 39 -292 134 -370 180 -33 19 -67 38 -75
42 -61 29 -343 234 -447 325 -63 55 -296 289 -352 353 -83 94 -235 298 -261
350 -3 6 -23 37 -45 70 -71 109 -183 328 -244 480 -5 11 -16 37 -25 58 -9 21
-16 42 -16 48 0 6 -6 25 -14 42 -22 50 -56 155 -56 175 0 10 -4 22 -9 27 -5 6
-14 33 -20 60 -17 80 -38 177 -50 225 -6 25 -11 64 -11 87 0 23 -5 54 -10 69
-21 54 -33 420 -21 646 6 117 15 231 20 253 6 22 15 72 21 110 15 94 35 188
53 255 9 30 21 75 27 100 6 25 15 52 19 60 5 9 12 30 16 49 4 18 13 44 21 59
8 15 14 35 14 44 0 9 4 19 9 23 5 3 13 20 17 37 3 18 10 39 15 48 4 8 18 38
30 65 199 449 466 819 820 1136 102 91 152 132 232 191 29 20 57 41 62 45 28
23 181 122 220 143 11 6 34 19 50 29 32 21 271 140 345 172 25 11 53 24 62 30
10 5 23 9 30 9 7 0 25 6 40 14 15 8 41 17 59 21 19 4 40 11 49 15 23 12 100
38 150 50 25 7 70 18 100 26 30 7 78 18 105 24 28 6 70 16 95 21 25 6 83 15
130 20 47 5 108 13 135 18 68 11 597 12 665 1z"/>
<path d="M3232 6728 c-7 -7 -52 -14 -112 -16 l-100 -4 0 -124 c0 -108 8 -152
23 -127 3 5 7 56 9 115 l3 108 62 0 c40 0 63 4 65 13 3 8 39 13 121 15 93 3
117 7 117 18 0 19 -170 20 -188 2z"/>
<path d="M3427 6703 c-15 -14 -6 -23 23 -23 24 0 30 -4 30 -21 0 -15 5 -20 18
-17 15 4 17 -4 17 -86 0 -74 3 -91 16 -94 13 -2 15 12 16 98 0 59 -4 100 -10
100 -5 0 -20 11 -33 25 -22 24 -62 33 -77 18z"/>
<path d="M3552 6553 c5 -25 28 -28 28 -4 0 12 -6 21 -16 21 -9 0 -14 -7 -12
-17z"/>
<path d="M3057 6428 c-15 -273 -7 -432 20 -405 2 3 7 123 10 266 4 221 2 261
-10 261 -11 0 -15 -26 -20 -122z"/>
<path d="M4014 6485 c-4 -9 -19 -15 -40 -15 -24 0 -34 -5 -34 -15 0 -23 31
-31 42 -12 13 24 186 25 194 2 4 -8 11 -15 16 -15 19 0 58 -45 58 -66 0 -12 7
-24 15 -28 11 -4 15 -22 15 -76 l0 -70 -47 0 -48 0 29 -15 c15 -8 44 -15 62
-15 l34 0 0 85 c0 49 -4 85 -10 85 -5 0 -12 11 -16 25 -3 13 -12 29 -20 36 -8
6 -14 20 -14 30 0 12 -7 19 -20 19 -11 0 -23 7 -26 15 -4 9 -19 15 -35 15 -17
0 -32 6 -35 15 -5 11 -21 15 -60 15 -39 0 -56 -4 -60 -15z"/>
<path d="M3486 6445 c-19 -14 -19 -15 7 -15 17 0 27 5 27 15 0 19 -9 19 -34 0z"/>
<path d="M3912 6424 c2 -11 11 -20 22 -22 13 -3 17 1 14 14 -2 11 -11 20 -22
22 -13 3 -17 -1 -14 -14z"/>
<path d="M2213 6399 c-18 -19 -17 -69 2 -69 11 0 15 -11 15 -41 0 -36 2 -40
15 -29 20 17 20 90 1 90 -9 0 -16 12 -18 31 -2 24 -5 28 -15 18z"/>
<path d="M3382 6393 c-9 -14 -28 -16 -151 -15 -134 1 -141 0 -141 -18 0 -19 8
-20 113 -20 86 0 122 4 147 17 19 9 47 19 64 22 41 9 46 31 7 31 -18 0 -34 -7
-39 -17z"/>
<path d="M3880 6391 c0 -12 -6 -21 -15 -21 -10 0 -15 -10 -15 -30 0 -18 -6
-33 -15 -36 -12 -5 -15 -29 -15 -131 0 -109 2 -124 16 -121 14 3 16 20 16 123
0 66 2 111 5 100 6 -29 70 -55 129 -54 27 1 39 4 27 6 -13 2 -23 9 -23 14 0 5
-22 9 -49 9 -55 0 -58 4 -59 78 -1 36 2 42 19 42 25 0 22 33 -4 38 -12 2 -17
-3 -17 -17z"/>
<path d="M3416 6355 c-4 -12 4 -15 42 -15 l47 0 -29 15 c-36 19 -52 19 -60 0z"/>
<path d="M3517 6343 c-12 -11 -7 -33 7 -33 7 0 16 -10 19 -21 3 -13 11 -19 19
-17 10 4 12 -8 10 -54 -5 -80 6 -148 23 -148 10 0 13 24 13 110 1 89 -2 110
-14 110 -8 0 -14 7 -14 15 0 8 -7 15 -15 15 -8 0 -15 7 -15 15 0 15 -21 21
-33 8z"/>
<path d="M2333 6268 c-27 -19 -33 -32 -39 -76 -3 -29 -4 -55 -1 -58 14 -15 27
12 27 57 0 38 4 51 18 56 9 4 22 12 27 19 6 7 19 14 30 17 16 4 15 5 -5 6 -14
0 -40 -9 -57 -21z"/>
<path d="M4743 6251 c21 -4 43 -13 50 -20 6 -6 21 -11 34 -11 13 0 26 -7 29
-15 4 -8 13 -15 21 -15 19 0 42 -29 43 -52 0 -21 28 -24 36 -4 6 15 -28 56
-46 56 -5 0 -10 7 -10 15 0 9 -9 15 -25 15 -13 0 -28 6 -32 14 -5 9 -32 16
-73 20 -47 4 -54 3 -27 -3z"/>
<path d="M4617 6219 l-28 -29 31 0 c20 0 30 5 30 15 0 8 9 15 20 15 11 0 20 7
20 15 0 25 -43 15 -73 -16z"/>
<path d="M2182 6205 c-11 -13 -8 -15 18 -15 20 0 30 5 30 15 0 19 -31 19 -48
0z"/>
<path d="M4064 6205 c9 -9 33 -15 62 -15 44 0 46 1 28 15 -10 8 -38 15 -62 15
-39 0 -42 -2 -28 -15z"/>
<path d="M3102 6151 c-17 -11 -12 -133 6 -139 9 -3 12 16 12 72 0 42 -1 76 -2
76 -2 0 -9 -4 -16 -9z"/>
<path d="M2333 6139 c-16 -16 -17 -79 -3 -79 15 0 22 23 18 60 -2 25 -5 29
-15 19z"/>
<path d="M4950 6103 c0 -34 12 -63 26 -63 10 0 14 13 14 40 0 33 -3 40 -20 40
-12 0 -20 -7 -20 -17z"/>
<path d="M3545 6080 c-10 -16 4 -50 21 -50 8 0 14 8 14 19 0 23 -25 47 -35 31z"/>
<path d="M2357 6073 c-4 -3 -7 -21 -7 -40 0 -23 5 -33 15 -33 10 0 15 -10 15
-30 0 -20 5 -30 15 -30 8 0 15 6 15 13 0 6 3 22 6 35 5 18 2 22 -15 22 -14 0
-20 6 -19 18 4 45 -7 64 -25 45z"/>
<path d="M4920 6021 c0 -40 25 -65 36 -36 9 22 -4 62 -21 69 -12 4 -15 -3 -15
-33z"/>
<path d="M3480 6026 c0 -14 -16 -16 -124 -16 -98 0 -126 -3 -136 -15 -7 -8
-27 -15 -45 -15 -53 0 -95 -12 -95 -26 0 -19 34 -18 50 1 10 12 42 15 171 15
142 0 159 2 168 18 7 14 18 17 45 14 28 -3 36 -1 36 12 0 9 -6 16 -12 16 -7 0
-23 3 -35 6 -17 5 -23 2 -23 -10z"/>
<path d="M3850 6020 c0 -24 25 -27 34 -4 9 23 8 24 -14 24 -13 0 -20 -7 -20
-20z"/>
<path d="M4506 6024 c-3 -9 -6 -18 -6 -20 0 -2 42 -4 94 -4 71 0 97 -4 106
-15 7 -8 29 -15 49 -15 20 -1 47 -7 61 -14 14 -8 38 -12 57 -9 29 5 33 3 33
-17 0 -13 5 -20 13 -17 6 2 12 17 12 33 l0 29 -88 3 c-66 2 -89 6 -94 17 -3
10 -19 15 -44 15 -26 0 -42 5 -45 15 -9 22 -139 21 -148 -1z"/>
<path d="M4190 5989 c-27 -29 -43 -38 -70 -38 -20 -1 -41 -6 -47 -12 -8 -8
-13 -8 -17 0 -4 6 -29 11 -57 11 -38 0 -49 4 -49 16 0 21 -34 14 -38 -9 -3
-13 3 -17 27 -17 21 0 31 -5 31 -15 0 -12 17 -15 95 -15 78 0 95 3 95 15 0 8
9 15 20 15 11 0 20 5 20 11 0 6 11 20 25 31 28 22 31 34 13 40 -7 2 -29 -13
-48 -33z"/>
<path d="M1870 6013 c-25 -3 -49 -11 -53 -19 -4 -8 -17 -14 -27 -14 -11 0 -20
-7 -20 -15 0 -8 -7 -15 -15 -15 -8 0 -15 -7 -15 -15 0 -8 -7 -15 -15 -15 -9 0
-15 -9 -15 -25 0 -30 20 -33 27 -5 3 11 12 20 19 20 8 0 14 7 14 15 0 8 7 15
15 15 9 0 18 7 21 15 4 8 18 15 34 15 15 0 33 7 40 15 7 8 23 15 37 15 14 0
21 4 18 10 -3 6 -9 9 -13 8 -4 -1 -27 -3 -52 -5z"/>
<path d="M1955 6000 c-9 -15 4 -30 25 -30 29 0 50 11 50 26 0 16 -65 20 -75 4z"/>
<path d="M4462 5994 c2 -11 11 -20 22 -22 13 -3 17 1 14 14 -2 11 -11 20 -22
22 -13 3 -17 -1 -14 -14z"/>
<path d="M3880 5985 c0 -8 7 -15 15 -15 8 0 15 7 15 15 0 8 -7 15 -15 15 -8 0
-15 -7 -15 -15z"/>
<path d="M2043 5965 c-3 -9 -3 -18 0 -22 10 -10 37 6 37 22 0 20 -29 20 -37 0z"/>
<path d="M4430 5894 c0 -66 2 -75 18 -72 31 6 28 148 -3 148 -12 0 -15 -16
-15 -76z"/>
<path d="M2073 5935 c-3 -9 -3 -18 0 -22 10 -10 37 6 37 22 0 20 -29 20 -37 0z"/>
<path d="M2417 5943 c-4 -3 -7 -21 -7 -40 0 -23 5 -33 15 -33 9 0 15 -10 15
-26 0 -41 34 -28 38 15 3 29 1 33 -16 29 -18 -5 -20 -2 -15 28 4 26 2 34 -9
34 -8 0 -18 -3 -21 -7z"/>
<path d="M4862 5898 c2 -23 8 -43 15 -45 17 -6 27 41 13 66 -18 34 -31 24 -28
-21z"/>
<path d="M2103 5905 c-3 -9 -3 -18 0 -22 10 -10 37 6 37 22 0 20 -29 20 -37 0z"/>
<path d="M5290 5905 c0 -8 -7 -15 -15 -15 -8 0 -15 -7 -15 -15 0 -8 -7 -15
-15 -15 -8 0 -15 -7 -15 -15 0 -18 26 -20 33 -2 3 7 6 5 6 -5 1 -15 11 -18 70
-18 49 0 74 -5 85 -15 8 -8 22 -15 30 -15 9 0 16 -7 16 -15 0 -8 7 -15 15 -15
8 0 15 -7 15 -15 0 -8 9 -15 20 -15 13 0 20 7 20 20 0 11 -7 20 -15 20 -8 0
-15 7 -15 15 0 9 -9 15 -24 15 -13 0 -26 7 -29 15 -5 10 -27 15 -84 17 -72 3
-78 5 -81 26 -3 17 2 22 17 22 12 0 21 6 21 14 0 8 6 17 13 19 6 3 -3 6 -20 6
-23 1 -33 -4 -33 -14z"/>
<path d="M3410 5890 c-41 -5 -120 -13 -175 -18 -55 -6 -113 -15 -128 -21 -16
-6 -41 -11 -57 -11 -15 0 -52 -7 -81 -16 -164 -49 -259 -79 -299 -96 -25 -11
-54 -23 -65 -28 -349 -146 -713 -431 -942 -735 -73 -96 -93 -124 -93 -130 0
-4 -11 -21 -24 -38 -14 -18 -30 -43 -35 -57 -6 -14 -20 -38 -30 -55 -19 -30
-80 -151 -106 -213 -8 -18 -21 -47 -29 -65 -19 -41 -64 -175 -83 -247 -71
-270 -101 -609 -73 -834 22 -177 42 -295 59 -356 32 -114 55 -189 67 -217 8
-17 14 -38 14 -46 0 -9 4 -18 9 -21 5 -3 12 -18 16 -33 8 -33 102 -226 145
-298 16 -27 33 -57 37 -65 3 -8 20 -34 37 -56 17 -23 38 -52 46 -64 22 -32 80
-110 109 -145 66 -79 289 -290 377 -357 155 -117 320 -215 469 -278 28 -12 64
-27 80 -35 59 -26 210 -75 231 -75 12 0 27 -6 33 -14 7 -8 33 -16 59 -19 26
-3 70 -10 97 -16 151 -32 211 -36 480 -36 154 1 298 5 320 10 22 6 59 9 83 7
38 -3 41 -5 32 -23 -11 -20 -6 -39 11 -39 5 0 9 15 9 34 0 43 14 54 86 67 33
6 63 15 68 20 6 5 17 9 27 9 17 0 145 39 194 60 17 7 46 19 65 27 49 20 102
44 120 55 8 4 22 11 30 14 8 3 22 9 30 14 8 5 38 21 65 36 28 14 64 37 82 50
17 13 34 24 38 24 6 0 66 40 75 51 3 3 21 15 40 27 19 11 46 31 60 44 14 13
48 41 75 62 50 40 217 204 265 261 162 191 289 399 390 640 11 28 24 57 29 65
5 9 12 31 16 50 4 19 11 40 15 45 4 6 12 30 18 55 17 72 33 132 44 169 6 18
14 61 19 95 4 33 13 88 18 121 13 74 14 524 1 585 -6 25 -14 81 -20 124 -5 44
-14 84 -20 90 -5 5 -10 22 -10 38 0 15 -6 47 -13 70 -8 24 -24 77 -37 118 -13
41 -30 86 -37 100 -7 14 -13 31 -13 38 0 7 -4 20 -9 30 -5 9 -35 69 -66 132
-31 63 -61 124 -68 135 -12 19 -50 82 -74 120 -7 11 -15 27 -19 35 -8 16 -58
83 -84 111 -8 9 -26 32 -40 50 -46 63 -315 325 -395 385 -82 61 -173 124 -180
124 -2 0 -23 12 -47 28 -66 41 -77 48 -158 87 -132 64 -157 75 -173 75 -9 0
-18 4 -22 9 -3 5 -19 12 -36 16 -17 4 -42 13 -57 21 -15 8 -36 14 -48 14 -11
0 -24 4 -30 9 -8 9 -28 14 -164 42 -30 6 -77 17 -104 25 -26 8 -72 14 -101 14
-29 0 -74 4 -101 9 -77 15 -261 20 -344 11z m440 -92 c30 -6 80 -14 110 -17
30 -4 71 -12 90 -18 19 -6 55 -16 80 -23 107 -27 122 -31 138 -39 9 -5 40 -17
67 -26 84 -29 178 -73 335 -156 62 -32 221 -142 311 -213 100 -80 281 -263
355 -361 65 -85 146 -201 157 -225 4 -8 16 -28 26 -45 21 -32 79 -146 104
-205 9 -19 25 -56 36 -82 12 -26 21 -53 21 -60 0 -8 4 -18 9 -23 8 -9 27 -69
66 -210 24 -89 38 -158 46 -230 4 -38 12 -113 19 -165 13 -101 8 -316 -9 -417
-6 -32 -15 -89 -21 -128 -23 -140 -31 -180 -41 -189 -5 -6 -9 -19 -9 -30 0
-25 -68 -227 -81 -240 -5 -6 -9 -17 -9 -25 0 -20 -121 -259 -160 -317 -16 -25
-30 -47 -30 -49 0 -4 -63 -92 -148 -205 -84 -113 -448 -438 -542 -483 -15 -8
-24 -13 -95 -57 -44 -28 -143 -77 -220 -110 -27 -12 -64 -28 -80 -35 -26 -12
-84 -31 -262 -86 -31 -10 -58 -15 -188 -38 -161 -28 -242 -35 -385 -35 -142 0
-215 7 -385 35 -144 23 -169 28 -194 38 -14 5 -53 17 -86 27 -442 129 -864
423 -1155 805 -50 65 -90 120 -90 124 0 3 -11 21 -25 39 -28 37 -60 94 -117
211 -58 118 -67 137 -74 168 -3 15 -10 30 -15 33 -5 3 -9 13 -9 22 0 9 -6 29
-14 43 -7 14 -16 43 -20 64 -4 20 -11 45 -16 54 -10 17 -25 82 -41 171 -6 30
-15 71 -21 90 -16 53 -22 550 -8 640 6 41 15 99 20 127 18 113 76 318 116 410
8 17 14 34 14 39 0 8 55 129 70 154 6 8 21 38 35 65 29 57 31 60 102 171 151
239 420 506 668 664 95 61 103 66 155 93 25 13 54 29 65 35 41 23 176 82 188
82 7 0 17 4 23 8 9 9 98 38 199 67 28 8 74 21 104 29 29 9 70 16 91 16 22 0
51 5 67 12 62 25 537 30 663 6z"/>
<path d="M3560 5548 c-19 -5 -62 -14 -95 -19 -32 -5 -64 -14 -69 -19 -6 -6
-24 -10 -40 -10 -17 0 -44 -7 -60 -15 -15 -8 -36 -15 -45 -15 -10 0 -26 -7
-37 -15 -10 -8 -25 -15 -32 -15 -8 0 -28 -6 -45 -14 -18 -8 -54 -24 -82 -36
-77 -33 -118 -54 -133 -67 -7 -7 -17 -13 -22 -13 -7 0 -64 -33 -194 -113 -25
-15 -21 -12 -151 -109 -108 -81 -395 -355 -395 -377 0 -6 -4 -11 -8 -11 -14 0
-212 -271 -212 -290 0 -5 -4 -10 -9 -10 -5 0 -14 -12 -20 -27 -6 -16 -20 -41
-31 -58 -33 -51 -120 -230 -120 -247 0 -8 -7 -21 -15 -28 -8 -7 -15 -22 -15
-34 0 -12 -7 -31 -15 -42 -8 -10 -15 -28 -15 -40 0 -11 -7 -29 -15 -40 -8 -10
-15 -32 -15 -47 0 -16 -5 -38 -11 -49 -13 -24 -32 -103 -56 -228 -12 -62 -16
-145 -16 -310 0 -225 12 -343 39 -407 8 -17 14 -40 14 -52 0 -11 7 -37 16 -58
9 -21 24 -54 32 -73 8 -19 19 -42 23 -50 51 -95 67 -121 131 -212 40 -56 117
-128 138 -128 32 0 67 26 186 139 117 112 139 131 150 131 4 0 23 15 44 33 21
17 59 50 86 72 50 42 270 260 314 311 14 16 43 52 64 79 22 28 49 59 59 70 10
11 48 65 84 120 36 55 74 112 84 127 11 15 19 32 19 38 0 5 5 10 10 10 6 0 10
6 10 14 0 8 6 21 13 28 7 7 33 46 58 86 24 40 52 85 61 100 10 15 22 36 28 47
5 11 37 58 71 105 33 47 68 97 77 112 9 16 20 28 25 28 4 0 7 5 7 11 0 6 17
32 38 57 48 60 49 61 75 98 31 44 150 176 232 259 75 76 114 111 240 219 44
37 91 78 105 90 14 11 57 46 95 76 39 30 72 57 75 60 4 4 117 94 155 122 6 5
28 24 50 43 22 19 46 35 53 35 6 0 12 4 12 8 0 4 43 39 95 77 90 67 94 72 95
108 0 23 -7 43 -18 55 -46 43 -110 98 -127 109 -11 7 -46 28 -78 47 -32 20
-69 39 -83 42 -13 3 -24 10 -24 14 0 4 -12 11 -27 14 -16 4 -41 13 -58 20 -50
23 -128 46 -155 46 -14 0 -43 7 -65 15 -31 11 -95 14 -280 14 -132 -1 -256 -5
-275 -11z"/>
<path d="M4961 4900 c-13 -11 -29 -20 -36 -20 -7 0 -15 -3 -17 -8 -1 -4 -25
-25 -53 -47 -27 -22 -56 -47 -65 -55 -26 -25 -101 -84 -119 -94 -36 -21 -284
-214 -357 -279 -16 -14 -40 -35 -54 -47 -185 -158 -288 -263 -480 -486 -26
-30 -144 -186 -170 -224 -8 -12 -21 -28 -27 -36 -7 -7 -13 -17 -13 -22 0 -8
-11 -23 -50 -69 -5 -7 -10 -17 -10 -22 0 -5 -6 -16 -13 -23 -7 -7 -27 -35 -43
-61 -16 -27 -36 -59 -44 -72 -17 -25 -94 -149 -113 -180 -7 -11 -24 -36 -39
-56 -16 -20 -28 -40 -28 -44 0 -3 -15 -26 -32 -49 -18 -24 -40 -54 -48 -66 -8
-12 -22 -30 -30 -40 -8 -10 -22 -28 -30 -40 -52 -77 -90 -120 -220 -250 -133
-132 -204 -197 -335 -305 -44 -37 -226 -189 -267 -224 -10 -9 -18 -29 -18 -48
0 -28 9 -40 73 -90 39 -32 81 -65 92 -75 11 -9 41 -29 68 -43 26 -14 68 -36
93 -50 26 -14 51 -25 56 -25 6 0 24 -6 41 -14 75 -33 179 -60 297 -76 173 -24
560 1 632 40 9 5 36 13 59 16 24 4 54 13 68 21 14 7 34 13 43 13 9 0 29 6 45
14 27 13 70 32 143 64 19 8 42 19 50 24 8 4 22 11 30 14 8 3 22 10 30 15 8 5
29 15 45 24 77 38 257 152 263 167 2 4 10 8 17 8 8 0 18 6 22 13 4 6 24 23 43
37 81 57 246 210 366 341 22 24 77 94 123 154 45 61 85 115 89 120 9 12 89
143 101 165 4 8 13 24 19 35 16 29 81 164 98 205 9 19 22 48 30 63 8 16 14 35
14 44 0 8 6 27 14 41 7 15 20 52 29 82 8 30 22 80 31 110 22 76 36 151 46 250
5 47 14 124 20 172 15 131 -24 456 -68 561 -7 16 -12 36 -12 45 0 9 -7 26 -15
36 -8 11 -15 28 -15 38 0 10 -3 18 -7 18 -5 0 -21 28 -38 61 -30 62 -130 188
-180 227 -36 29 -110 29 -144 2z"/>
<path d="M2140 5864 c0 -22 2 -25 15 -14 8 7 15 19 15 26 0 8 -7 14 -15 14
-10 0 -15 -10 -15 -26z"/>
<path d="M1680 5781 c0 -68 2 -79 15 -74 13 4 15 20 13 76 -2 45 -7 72 -15 75
-10 3 -13 -17 -13 -77z"/>
<path d="M4830 5831 c0 -34 18 -51 31 -30 14 21 6 53 -13 57 -14 3 -18 -3 -18
-27z"/>
<path d="M2177 5833 c-4 -3 -7 -22 -7 -40 0 -47 24 -38 28 10 3 34 -5 46 -21
30z"/>
<path d="M2473 5813 c-4 -9 -1 -19 5 -21 7 -2 12 -10 12 -18 0 -10 12 -14 40
-14 22 0 40 5 40 11 0 5 14 15 30 20 17 6 30 18 30 26 0 12 -7 11 -34 -6 -18
-12 -47 -21 -64 -21 -25 0 -29 3 -25 20 7 25 -25 28 -34 3z"/>
<path d="M5200 5814 c0 -9 5 -14 12 -12 18 6 21 28 4 28 -9 0 -16 -7 -16 -16z"/>
<path d="M4460 5804 c0 -9 7 -14 17 -12 25 5 28 28 4 28 -12 0 -21 -6 -21 -16z"/>
<path d="M5222 5789 c-19 -23 -20 -29 -8 -29 9 0 16 7 16 15 0 8 9 15 20 15
11 0 20 7 20 15 0 24 -23 16 -48 -16z"/>
<path d="M4800 5788 c0 -24 12 -58 20 -58 10 0 17 30 12 53 -4 19 -32 24 -32
5z"/>
<path d="M4490 5775 c0 -9 9 -15 24 -15 13 0 26 -7 30 -15 4 -12 23 -15 88
-13 65 1 71 2 28 5 -30 3 -59 8 -65 12 -5 5 -22 11 -37 15 -16 3 -28 11 -28
16 0 6 -9 10 -20 10 -11 0 -20 -7 -20 -15z"/>
<path d="M5165 5770 c-8 -24 1 -40 21 -40 16 0 17 5 8 38 -8 27 -21 28 -29 2z"/>
<path d="M2200 5701 c0 -37 -5 -65 -14 -73 -7 -8 -17 -25 -21 -38 -10 -30 -53
-70 -76 -70 -11 0 -19 -7 -19 -15 0 -12 -16 -15 -86 -15 -76 0 -85 -2 -82 -17
5 -25 148 -33 148 -8 0 10 10 15 30 15 20 0 30 5 30 15 0 8 5 15 10 15 13 0
50 37 50 50 0 6 7 10 15 10 10 0 15 10 15 29 0 16 6 31 15 35 11 4 15 21 15
66 0 47 -3 60 -15 60 -12 0 -15 -13 -15 -59z"/>
<path d="M4753 5753 c13 -4 17 -15 17 -59 0 -41 4 -54 15 -54 11 0 15 11 15
38 0 63 -9 82 -39 81 -17 -1 -20 -3 -8 -6z"/>
<path d="M5138 5734 c-11 -10 3 -34 19 -34 8 0 13 7 11 17 -3 18 -20 27 -30
17z"/>
<path d="M5534 5715 c-3 -8 -4 -41 -2 -73 2 -48 0 -59 -12 -58 -9 1 -15 -7
-14 -20 0 -16 -4 -20 -19 -16 -17 4 -19 1 -14 -19 4 -13 7 -27 7 -31 0 -15 30
-8 30 7 0 9 7 18 15 21 8 4 15 15 15 25 0 10 7 19 15 19 12 0 15 16 15 80 0
65 -3 80 -15 80 -9 0 -18 -7 -21 -15z"/>
<path d="M1710 5669 c0 -52 24 -48 28 4 2 28 -1 37 -12 37 -12 0 -16 -11 -16
-41z"/>
<path d="M1150 5685 c0 -8 7 -15 15 -15 8 0 15 -7 15 -15 0 -8 7 -15 15 -15 8
0 15 -7 15 -15 0 -10 10 -14 35 -13 41 1 50 28 10 28 -16 0 -25 6 -25 15 0 8
-7 15 -15 15 -9 0 -18 7 -21 15 -4 8 -15 15 -25 15 -10 0 -19 -7 -19 -15z"/>
<path d="M5110 5685 c0 -8 -9 -15 -20 -15 -11 0 -20 -7 -20 -15 0 -8 -7 -15
-15 -15 -8 0 -15 -7 -15 -15 0 -8 -7 -15 -15 -15 -20 0 -19 -26 1 -34 22 -9
24 -8 24 9 0 8 7 15 15 15 8 0 15 7 15 15 0 8 7 15 15 15 8 0 15 6 15 14 0 8
7 16 15 20 8 3 15 12 15 21 0 8 -7 15 -15 15 -8 0 -15 -7 -15 -15z"/>
<path d="M1740 5610 c0 -16 5 -30 10 -30 6 0 10 3 10 8 0 4 3 17 6 30 5 16 2
22 -10 22 -11 0 -16 -9 -16 -30z"/>
<path d="M4800 5620 c0 -5 7 -10 15 -10 8 0 15 5 15 10 0 6 -7 10 -15 10 -8 0
-15 -4 -15 -10z"/>
<path d="M1268 5603 c-21 -5 -24 -23 -4 -23 8 0 31 -16 50 -35 29 -28 42 -34
61 -29 18 4 27 1 31 -10 8 -20 34 -21 34 -1 0 8 -9 15 -20 15 -11 0 -20 7 -20
15 0 9 -9 15 -25 15 -16 0 -25 6 -25 15 0 8 -7 15 -15 15 -8 0 -15 7 -15 15 0
15 -17 17 -52 8z"/>
<path d="M1783 5589 c-18 -18 -16 -39 2 -39 8 0 15 -6 15 -14 0 -8 10 -18 22
-22 13 -4 28 -13 33 -21 12 -17 45 -7 45 13 0 8 -10 14 -25 14 -14 0 -28 7
-31 15 -4 8 -14 15 -24 15 -13 0 -20 9 -22 26 -2 20 -5 23 -15 13z"/>
<path d="M4980 5568 c0 -16 19 -38 33 -38 4 0 7 10 5 22 -3 25 -38 39 -38 16z"/>
<path d="M4950 5530 c0 -11 7 -20 15 -20 8 0 15 -7 15 -17 0 -9 3 -14 6 -10 3
3 3 19 -1 36 -7 34 -35 43 -35 11z"/>
<path d="M1370 5500 c0 -5 5 -10 11 -10 5 0 7 5 4 10 -3 6 -8 10 -11 10 -2 0
-4 -4 -4 -10z"/>
<path d="M5435 5490 c-3 -11 -11 -20 -16 -20 -19 0 -4 -45 15 -48 15 -3 18 0
14 16 -4 15 -1 18 13 15 21 -6 24 8 9 38 -14 25 -27 24 -35 -1z"/>
<path d="M1442 5478 c6 -18 28 -21 28 -4 0 9 -7 16 -16 16 -9 0 -14 -5 -12
-12z"/>
<path d="M1402 5453 c4 -32 21 -38 84 -28 31 4 44 11 44 22 0 13 -8 14 -49 9
-39 -5 -50 -3 -55 9 -9 26 -28 17 -24 -12z"/>
<path d="M1370 5405 c0 -14 -7 -28 -15 -31 -8 -4 -15 -12 -15 -20 0 -8 -7 -14
-15 -14 -8 0 -15 -9 -15 -20 0 -11 -7 -20 -15 -20 -8 0 -15 -9 -15 -20 0 -11
-7 -23 -15 -26 -8 -4 -15 -12 -15 -20 0 -8 -7 -14 -15 -14 -8 0 -15 -9 -15
-20 0 -11 -7 -20 -15 -20 -8 0 -15 -7 -15 -15 0 -8 -9 -24 -20 -35 -11 -11
-20 -22 -20 -25 0 -3 9 -5 20 -5 11 0 20 7 20 15 0 9 7 18 15 21 8 4 15 13 15
20 0 8 7 17 15 20 8 4 15 12 15 20 0 8 7 14 15 14 8 0 15 9 15 20 0 11 7 23
15 26 8 4 15 13 15 20 0 8 7 17 15 20 8 4 15 12 15 20 0 8 7 14 15 14 8 0 15
7 15 15 0 8 9 24 20 35 21 21 17 50 -6 50 -8 0 -14 -10 -14 -25z"/>
<path d="M1513 5423 c-13 -2 -23 -11 -23 -19 0 -23 64 -14 68 9 3 17 -2 18
-45 10z"/>
<path d="M5382 5414 c2 -11 11 -20 22 -22 13 -3 17 1 14 14 -2 11 -11 20 -22
22 -13 3 -17 -1 -14 -14z"/>
<path d="M1553 5385 c-3 -9 -3 -18 0 -22 10 -10 37 6 37 22 0 20 -29 20 -37 0z"/>
<path d="M5352 5384 c2 -11 11 -20 22 -22 13 -3 17 1 14 14 -2 11 -11 20 -22
22 -13 3 -17 -1 -14 -14z"/>
<path d="M1583 5355 c-8 -22 -1 -26 35 -19 18 4 32 13 32 20 0 20 -59 18 -67
-1z"/>
<path d="M5322 5354 c2 -11 11 -20 22 -22 13 -3 17 1 14 14 -2 11 -11 20 -22
22 -13 3 -17 -1 -14 -14z"/>
<path d="M5774 5355 c-4 -8 -17 -15 -30 -15 -17 0 -24 -6 -24 -20 0 -25 36
-27 42 -2 4 14 14 16 60 14 49 -3 61 -9 97 -42 22 -21 41 -47 41 -58 0 -11 7
-22 15 -26 11 -4 15 -21 15 -60 0 -35 -5 -60 -15 -70 -8 -8 -15 -24 -15 -36 0
-33 34 -21 38 13 2 16 10 31 18 34 20 7 19 79 -1 87 -9 3 -15 19 -15 41 0 24
-4 35 -15 35 -8 0 -15 4 -15 10 0 14 -69 80 -84 80 -8 0 -16 7 -20 15 -3 10
-19 15 -46 15 -27 0 -43 -5 -46 -15z"/>
<path d="M1633 5333 c-13 -2 -23 -11 -23 -19 0 -23 64 -14 68 9 3 17 -2 18
-45 10z"/>
<path d="M5290 5325 c0 -8 -7 -15 -15 -15 -8 0 -15 -6 -15 -14 0 -8 -8 -17
-17 -19 -17 -4 -17 -5 0 -6 9 0 17 -8 17 -16 0 -8 7 -15 15 -15 14 0 19 14 18
48 -1 6 8 12 19 12 14 0 18 5 14 16 -3 9 -6 18 -6 20 0 2 -7 4 -15 4 -8 0 -15
-7 -15 -15z"/>
<path d="M1677 5304 c-12 -13 -7 -34 8 -34 8 0 15 -7 15 -15 0 -8 9 -15 20
-15 11 0 20 -7 20 -15 0 -8 7 -15 15 -15 24 0 20 57 -5 65 -11 3 -24 4 -29 1
-5 -3 -8 2 -7 11 1 18 -24 29 -37 17z"/>
<path d="M5690 5231 c0 -65 3 -81 15 -81 10 0 15 -10 15 -34 0 -21 6 -36 15
-40 11 -4 15 -20 15 -56 0 -38 4 -50 15 -50 9 0 15 -9 15 -22 0 -21 0 -21 -15
-2 -13 18 -14 16 -15 -23 0 -37 -3 -43 -21 -43 -25 0 -23 -33 3 -38 17 -3 58
30 58 47 0 5 5 11 12 13 17 6 12 70 -6 80 -10 6 -16 23 -16 48 0 29 -4 40 -15
40 -11 0 -15 11 -15 40 0 28 -4 40 -15 40 -11 0 -15 18 -17 77 -2 50 -7 78
-15 81 -10 3 -13 -17 -13 -77z"/>
<path d="M847 5260 c-4 -17 -1 -21 16 -18 25 3 30 31 6 36 -10 2 -19 -6 -22
-18z"/>
<path d="M880 5226 c0 -9 7 -16 16 -16 17 0 14 22 -4 28 -7 2 -12 -3 -12 -12z"/>
<path d="M920 5230 c0 -5 5 -10 10 -10 6 0 10 -4 10 -10 0 -5 -7 -10 -15 -10
-8 0 -15 -4 -15 -10 0 -5 14 -10 30 -10 21 0 30 -5 30 -16 0 -9 7 -14 17 -12
22 4 29 28 9 28 -9 0 -16 7 -16 15 0 8 -7 15 -15 15 -8 0 -15 7 -15 15 0 8 -7
15 -15 15 -8 0 -15 -4 -15 -10z"/>
<path d="M5483 5183 c-7 -2 -13 -16 -13 -30 0 -19 4 -24 16 -19 9 3 18 6 20 6
2 0 4 11 4 25 0 25 -4 28 -27 18z"/>
<path d="M1000 5136 c0 -9 7 -16 16 -16 17 0 14 22 -4 28 -7 2 -12 -3 -12 -12z"/>
<path d="M1042 5138 c6 -18 28 -21 28 -4 0 9 -7 16 -16 16 -9 0 -14 -5 -12
-12z"/>
<path d="M5440 5067 c0 -48 4 -66 15 -71 8 -3 15 -14 15 -24 0 -11 7 -25 15
-32 8 -7 15 -19 15 -26 0 -8 7 -14 15 -14 8 0 15 -7 15 -15 0 -8 7 -15 15 -15
8 0 15 -7 15 -15 0 -9 9 -15 24 -15 13 0 26 -7 30 -15 4 -11 20 -15 56 -15 44
0 51 3 48 18 -2 13 -15 18 -61 20 -42 2 -57 7 -57 17 0 9 -10 15 -23 15 -24 0
-67 47 -67 74 0 8 -7 19 -14 23 -10 6 -16 30 -18 78 -2 57 -6 70 -20 73 -16 3
-18 -5 -18 -61z"/>
<path d="M1054 5105 c-18 -14 -18 -14 9 -15 17 0 27 -5 27 -15 0 -8 7 -15 15
-15 8 0 15 -7 15 -15 0 -8 7 -15 15 -15 22 0 18 15 -10 36 -14 10 -25 27 -25
36 0 22 -19 23 -46 3z"/>
<path d="M1170 5060 c0 -11 5 -20 10 -20 6 0 10 9 10 20 0 11 -4 20 -10 20 -5
0 -10 -9 -10 -20z"/>
<path d="M1180 5020 c-13 -9 -13 -11 0 -20 19 -13 34 -8 38 13 4 19 -15 22
-38 7z"/>
<path d="M1215 4990 c-4 -6 4 -22 18 -36 19 -19 31 -23 51 -18 33 8 34 30 1
38 -14 4 -25 11 -25 16 0 13 -37 13 -45 0z"/>
<path d="M1301 4926 c-8 -10 -9 -16 -1 -21 16 -10 50 4 50 21 0 18 -34 18 -49
0z"/>
<path d="M1343 4903 c-7 -2 -13 -12 -13 -20 0 -11 7 -14 24 -11 19 4 22 1 18
-15 -4 -17 -2 -19 19 -14 13 4 30 7 37 7 6 0 12 7 12 15 0 8 -9 15 -19 15 -11
0 -26 7 -35 15 -15 16 -22 17 -43 8z"/>
<path d="M1428 4836 c-26 -19 -22 -26 12 -26 23 0 30 4 30 20 0 23 -17 25 -42
6z"/>
<path d="M2350 1211 c0 -100 3 -123 13 -113 7 8 14 53 18 110 l5 97 2 -117 c1
-65 6 -120 12 -123 12 -8 12 -15 16 136 l3 127 -35 4 -34 4 0 -125z"/>
<path d="M2871 1228 c-1 -10 -8 -18 -16 -18 -10 0 -15 -10 -15 -30 0 -20 -5
-30 -15 -30 -9 0 -15 -9 -15 -25 0 -16 -6 -25 -15 -25 -8 0 -15 -9 -15 -19 0
-11 -7 -26 -15 -35 -17 -16 -20 -46 -5 -46 5 0 14 8 20 18 10 15 11 14 7 -5
-4 -16 0 -23 10 -23 11 0 14 9 11 33 -3 29 -1 33 14 29 15 -4 18 2 18 39 0 23
9 62 21 86 11 23 18 49 16 55 -3 8 -6 6 -6 -4z"/>
<path d="M2921 1194 c9 -12 12 -67 10 -236 -2 -179 0 -219 11 -216 15 5 25
124 27 331 l1 137 -31 0 c-27 0 -30 -2 -18 -16z"/>
<path d="M3940 1159 c0 -24 23 -21 28 4 2 10 -3 17 -12 17 -10 0 -16 -9 -16
-21z"/>
<path d="M3970 1091 c0 -39 4 -51 15 -51 12 0 15 -13 15 -55 0 -40 4 -55 14
-55 12 0 26 94 26 177 0 39 -24 21 -31 -23 l-6 -39 -2 36 c0 20 -8 42 -16 49
-13 11 -15 6 -15 -39z"/>
<path d="M3410 1105 c0 -8 -4 -15 -10 -15 -5 0 -10 -11 -10 -25 0 -14 -7 -28
-15 -31 -8 -4 -15 -15 -15 -25 0 -11 -7 -22 -15 -25 -8 -4 -15 -15 -15 -25 0
-10 7 -19 15 -19 8 0 15 6 15 14 0 7 7 19 15 26 8 7 15 20 15 30 0 10 7 23 15
30 8 7 15 21 15 32 0 18 5 19 35 14 36 -7 44 1 23 22 -18 18 -68 15 -68 -3z"/>
<path d="M3442 1068 c-7 -7 -12 -20 -12 -29 0 -9 -7 -19 -15 -23 -17 -6 -21
-56 -5 -56 6 0 13 14 17 30 3 17 12 30 19 30 9 0 14 11 14 30 0 34 -1 35 -18
18z"/>
<path d="M4280 1044 c0 -8 -9 -14 -19 -14 -11 0 -26 -7 -35 -15 -8 -8 -19 -15
-25 -15 -6 0 -11 -7 -11 -15 0 -7 -6 -18 -13 -22 -16 -9 -39 -93 -26 -93 5 0
9 11 9 25 0 14 7 28 15 31 8 4 15 12 15 20 0 8 6 14 14 14 8 0 16 7 20 15 3 8
12 15 20 15 7 0 16 6 19 14 5 11 32 15 120 18 108 3 114 2 109 -16 -4 -16 -1
-18 19 -13 13 4 30 7 37 7 6 0 12 7 12 15 0 8 -9 15 -19 15 -11 0 -21 6 -23
12 -7 19 -238 20 -238 2z"/>
<path d="M4044 1016 c-9 -23 0 -69 14 -74 8 -2 12 10 12 42 0 44 -15 62 -26
32z"/>
<path d="M2380 852 c0 -135 3 -173 13 -170 20 7 22 297 3 323 -14 18 -15 3
-16 -153z"/>
<path d="M4560 985 c0 -8 7 -15 15 -15 8 0 15 7 15 15 0 8 -7 15 -15 15 -8 0
-15 -7 -15 -15z"/>
<path d="M2720 965 c0 -14 5 -25 10 -25 6 0 10 5 10 12 0 9 3 9 12 0 19 -19
28 -14 28 13 0 26 -14 34 -24 13 -5 -10 -7 -10 -12 0 -10 21 -24 13 -24 -13z"/>
<path d="M4530 970 c0 -5 5 -10 11 -10 5 0 7 5 4 10 -3 6 -8 10 -11 10 -2 0
-4 -4 -4 -10z"/>
<path d="M4590 956 c0 -8 7 -16 15 -20 10 -4 15 1 15 14 0 11 -7 20 -15 20 -8
0 -15 -6 -15 -14z"/>
<path d="M3374 946 c-8 -22 3 -33 18 -18 9 9 9 15 0 24 -9 9 -13 7 -18 -6z"/>
<path d="M4556 945 c-3 -9 0 -15 8 -15 8 0 16 -9 19 -20 3 -11 10 -20 16 -20
19 0 12 24 -13 48 -20 18 -25 19 -30 7z"/>
<path d="M3583 933 c-29 -3 -43 -9 -43 -19 0 -9 -11 -14 -30 -14 -16 0 -30 -4
-30 -10 0 -5 -7 -10 -15 -10 -8 0 -15 -7 -15 -15 0 -9 -7 -18 -15 -21 -8 -4
-15 -17 -15 -30 0 -16 -6 -24 -16 -24 -14 0 -16 -8 -11 -52 9 -75 27 -86 27
-16 0 52 2 56 21 51 19 -5 20 -3 14 31 -7 33 -5 36 15 36 16 0 20 4 16 15 -4
11 2 15 24 15 20 0 30 5 30 15 0 11 11 15 39 15 25 0 41 5 45 15 4 11 21 15
61 15 40 0 57 -4 61 -15 4 -9 19 -15 40 -15 24 0 34 -5 34 -15 0 -16 9 -19 34
-9 23 9 20 24 -4 24 -11 0 -20 6 -20 14 0 22 -115 31 -247 19z"/>
<path d="M2690 904 c0 -14 4 -23 10 -19 6 3 10 15 10 26 0 10 -4 19 -10 19 -5
0 -10 -12 -10 -26z"/>
<path d="M2732 917 c-9 -11 -10 -17 -2 -22 15 -9 23 -1 18 21 -3 15 -4 16 -16
1z"/>
<path d="M4620 921 c0 -17 12 -41 21 -41 5 0 9 11 9 25 0 16 -6 25 -15 25 -8
0 -15 -4 -15 -9z"/>
<path d="M3300 900 c0 -13 5 -20 13 -17 6 2 12 10 12 17 0 7 -6 15 -12 18 -8
2 -13 -5 -13 -18z"/>
<path d="M4030 876 c0 -35 4 -46 16 -46 12 0 14 9 12 42 -4 59 -28 63 -28 4z"/>
<path d="M3333 872 c-26 -35 -32 -63 -15 -69 7 -3 12 5 12 21 0 14 7 29 16 34
9 5 14 17 13 26 -3 15 -8 13 -26 -12z"/>
<path d="M2660 849 c0 -20 4 -29 9 -23 15 15 17 47 4 51 -9 3 -13 -6 -13 -28z"/>
<path d="M2967 753 c-4 -71 -7 -189 -7 -265 l0 -136 49 -4 c71 -5 81 -1 81 33
0 19 5 29 15 29 16 0 19 19 9 69 -4 17 -13 31 -20 31 -10 0 -12 -11 -7 -46 5
-37 3 -48 -10 -56 -10 -5 -17 -16 -17 -23 0 -16 -12 -18 -45 -9 -20 5 -20 12
-16 255 3 213 1 249 -11 249 -12 0 -16 -25 -21 -127z"/>
<path d="M2697 863 c-13 -12 -7 -33 8 -33 8 0 15 9 15 20 0 20 -11 26 -23 13z"/>
<path d="M3270 840 c0 -32 1 -33 17 -17 16 16 16 18 0 34 -16 16 -17 15 -17
-17z"/>
<path d="M3850 855 c0 -8 7 -15 15 -15 8 0 15 4 15 9 0 5 -7 11 -15 15 -9 3
-15 0 -15 -9z"/>
<path d="M3886 848 c-9 -34 -7 -58 4 -58 15 0 32 39 25 60 -8 27 -21 25 -29
-2z"/>
<path d="M4620 823 l0 -48 20 25 c16 20 20 22 20 8 0 -10 5 -18 10 -18 6 0 10
18 10 40 0 29 -4 40 -15 40 -9 0 -15 -9 -16 -22 l0 -23 -9 23 c-14 34 -20 27
-20 -25z"/>
<path d="M4107 813 c-9 -90 -8 -193 1 -193 11 0 22 82 22 173 0 77 -16 91 -23
20z"/>
<path d="M2624 794 c-4 -16 -14 -34 -22 -40 -8 -6 -12 -16 -8 -22 10 -17 24
-15 29 6 4 13 5 11 6 -5 1 -14 7 -23 17 -23 14 0 16 8 10 47 -8 59 -22 76 -32
37z"/>
<path d="M3922 803 c5 -25 28 -28 28 -4 0 12 -6 21 -16 21 -9 0 -14 -7 -12
-17z"/>
<path d="M2673 803 c-18 -7 -16 -33 2 -33 8 0 15 9 15 20 0 11 -1 20 -2 19 -2
0 -9 -3 -15 -6z"/>
<path d="M3240 780 c0 -20 -5 -30 -15 -30 -9 0 -15 -9 -15 -25 0 -14 5 -25 10
-25 6 0 10 8 10 17 0 9 10 27 21 39 12 13 19 30 16 38 -10 27 -27 18 -27 -14z"/>
<path d="M3277 773 c-6 -16 -18 -33 -26 -39 -8 -6 -11 -18 -8 -28 10 -25 27
-19 27 9 0 16 6 25 15 25 10 0 15 10 15 30 0 37 -7 38 -23 3z"/>
<path d="M4060 776 c0 -13 3 -31 6 -40 11 -29 24 -16 24 24 0 29 -4 40 -15 40
-9 0 -15 -9 -15 -24z"/>
<path d="M3908 718 l-3 -53 -225 -5 c-214 -5 -250 -9 -250 -31 0 -12 281 -11
340 1 61 13 106 19 163 21 l47 2 0 53 c0 41 -4 54 -15 54 -11 0 -15 -12 -16
-42 -1 -25 -3 -32 -6 -18 -13 87 -30 95 -35 18z"/>
<path d="M4680 720 c0 -29 4 -40 15 -40 11 0 15 11 15 40 0 29 -4 40 -15 40
-11 0 -15 -11 -15 -40z"/>
<path d="M4647 694 c-2 -25 -10 -50 -16 -53 -6 -4 -10 -30 -10 -59 1 -39 5
-52 17 -52 12 0 14 9 9 45 -4 24 -3 47 2 50 5 3 7 -4 4 -15 -4 -14 0 -20 12
-20 15 0 16 8 10 68 -9 83 -21 99 -28 36z"/>
<path d="M3360 635 c0 -69 3 -85 15 -85 12 0 15 16 15 85 0 69 -3 85 -15 85
-12 0 -15 -16 -15 -85z"/>
<path d="M2604 680 c-4 -16 -13 -35 -20 -41 -19 -15 -18 -49 1 -49 10 0 15 10
15 30 0 20 5 30 15 30 10 0 15 10 15 30 0 39 -19 39 -26 0z"/>
<path d="M2563 685 c-3 -9 -3 -18 0 -21 9 -9 27 6 27 22 0 19 -19 18 -27 -1z"/>
<path d="M3180 665 c0 -14 4 -25 9 -25 5 0 11 11 13 25 4 17 1 25 -8 25 -8 0
-14 -11 -14 -25z"/>
<path d="M3215 670 c-7 -12 2 -30 16 -30 5 0 9 9 9 20 0 21 -15 27 -25 10z"/>
<path d="M4136 668 c-18 -57 -13 -152 7 -145 14 4 21 157 7 157 -6 0 -12 -6
-14 -12z"/>
<path d="M2533 590 c6 -45 3 -53 -24 -82 -16 -18 -25 -34 -19 -36 5 -2 10 -11
11 -20 0 -10 5 -5 11 11 5 15 14 27 19 27 5 0 9 9 9 20 0 11 7 20 15 20 16 0
18 15 9 73 -4 24 -12 37 -22 37 -12 0 -14 -9 -9 -50z"/>
<path d="M3150 605 c0 -14 5 -25 10 -25 6 0 10 4 10 9 0 5 3 16 6 25 4 11 1
16 -10 16 -10 0 -16 -9 -16 -25z"/>
<path d="M3187 613 c-12 -11 -8 -23 8 -23 8 0 15 7 15 15 0 16 -12 20 -23 8z"/>
<path d="M4160 587 c0 -7 7 -22 15 -33 14 -18 14 -17 15 14 0 22 -5 32 -15 32
-8 0 -15 -6 -15 -13z"/>
<path d="M3406 582 c-3 -5 -9 -35 -12 -67 -6 -47 -4 -57 7 -53 7 2 16 15 20
29 6 23 6 23 10 -5 2 -16 10 -31 17 -34 18 -6 16 54 -3 62 -8 3 -15 16 -15 28
0 28 -15 54 -24 40z"/>
<path d="M2500 554 c0 -14 3 -14 15 -4 8 7 15 14 15 16 0 2 -7 4 -15 4 -8 0
-15 -7 -15 -16z"/>
<path d="M3117 556 c-10 -25 4 -86 19 -86 15 0 17 20 8 69 -7 33 -18 40 -27
17z"/>
<path d="M4590 555 c0 -8 5 -15 10 -15 6 0 10 7 10 15 0 8 -4 15 -10 15 -5 0
-10 -7 -10 -15z"/>
<path d="M3150 545 c0 -8 7 -15 15 -15 8 0 15 7 15 15 0 8 -7 15 -15 15 -8 0
-15 -7 -15 -15z"/>
<path d="M4560 524 c0 -8 5 -12 10 -9 6 3 10 10 10 16 0 5 -4 9 -10 9 -5 0
-10 -7 -10 -16z"/>
<path d="M4597 523 c-12 -11 -8 -23 8 -23 8 0 15 7 15 15 0 16 -12 20 -23 8z"/>
<path d="M3956 491 c-3 -5 -15 -7 -26 -4 -21 6 -26 -10 -14 -41 9 -23 34 -20
34 4 0 11 7 20 15 20 8 0 15 7 15 15 0 16 -16 20 -24 6z"/>
<path d="M3460 435 c0 -8 7 -15 15 -15 8 0 15 7 15 15 0 8 -7 15 -15 15 -8 0
-15 -7 -15 -15z"/>
<path d="M3880 435 c0 -8 7 -15 15 -15 8 0 15 7 15 15 0 8 -7 15 -15 15 -8 0
-15 -7 -15 -15z"/>
<path d="M3420 425 c0 -8 7 -15 15 -15 8 0 15 -7 15 -15 0 -8 7 -15 15 -15 8
0 15 7 15 15 0 8 -7 15 -15 15 -8 0 -15 7 -15 15 0 8 -7 15 -15 15 -8 0 -15
-7 -15 -15z"/>
<path d="M3495 400 c3 -5 10 -10 16 -10 5 0 9 5 9 10 0 6 -7 10 -16 10 -8 0
-12 -4 -9 -10z"/>
<path d="M3850 399 c0 -5 5 -7 10 -4 6 3 10 8 10 11 0 2 -4 4 -10 4 -5 0 -10
-5 -10 -11z"/>
<path d="M3896 403 c-11 -11 -6 -23 9 -23 8 0 15 4 15 9 0 13 -16 22 -24 14z"/>
<path d="M3480 364 c0 -9 11 -14 30 -14 20 0 30 -5 30 -15 0 -13 22 -15 135
-15 113 0 135 2 135 15 0 13 -21 15 -130 15 -105 0 -130 3 -130 14 0 9 -12 14
-35 14 -23 0 -35 -5 -35 -14z"/>
<path d="M3820 366 c0 -11 9 -16 26 -16 31 0 28 23 -4 28 -15 2 -22 -2 -22
-12z"/>
</g>
</svg>
